<?xml version="1.0" encoding="UTF-8"?>
<svg xmlns="http://www.w3.org/2000/svg" xmlns:xlink="http://www.w3.org/1999/xlink" width="32px" height="32px" viewBox="0 0 32 32" version="1.1">
<g id="surface1">
<path style=" stroke:none;fill-rule:nonzero;fill:rgb(0%,0%,0%);fill-opacity:1;" d="M 14.71875 32.03125 C 9.8125 32.03125 4.921875 32.03125 0.03125 32.03125 C 0.03125 21.363281 0.03125 10.699219 0.03125 0.03125 C 10.699219 0.03125 21.363281 0.03125 32.03125 0.03125 C 32.03125 10.699219 32.03125 21.363281 32.03125 32.03125 C 26.265625 32.03125 20.5 32.03125 14.71875 32.03125 M 10.058594 15.199219 C 10.015625 15.25 9.96875 15.300781 9.925781 15.351562 C 9.378906 16.074219 9.183594 16.925781 9.097656 17.800781 C 9.011719 18.699219 8.710938 19.484375 8.039062 20.113281 C 7.710938 20.421875 7.402344 20.757812 7.113281 21.101562 C 6.847656 21.410156 6.710938 21.785156 6.722656 22.203125 C 6.734375 22.605469 6.878906 22.964844 7.074219 23.3125 C 7.089844 23.339844 7.140625 23.363281 7.171875 23.363281 C 7.917969 23.363281 8.664062 23.367188 9.40625 23.363281 C 9.542969 23.359375 9.59375 23.269531 9.503906 23.167969 C 9.410156 23.066406 9.285156 22.984375 9.164062 22.910156 C 8.996094 22.816406 8.8125 22.753906 8.652344 22.652344 C 8.378906 22.480469 8.335938 22.203125 8.578125 21.992188 C 8.855469 21.746094 9.148438 21.511719 9.464844 21.316406 C 10.839844 20.460938 11.988281 19.375 12.921875 18.058594 C 13.160156 17.726562 13.367188 17.375 13.59375 17.027344 C 13.667969 17.066406 13.746094 17.121094 13.832031 17.152344 C 14.136719 17.265625 14.4375 17.402344 14.75 17.46875 C 15.457031 17.617188 16.175781 17.636719 16.894531 17.5625 C 17.769531 17.46875 18.4375 17.070312 18.761719 16.210938 C 18.878906 15.902344 18.960938 15.578125 19.058594 15.25 C 19.0625 15.285156 19.066406 15.3125 19.066406 15.34375 C 19.097656 15.898438 19.121094 16.453125 19.15625 17.007812 C 19.214844 17.855469 19.457031 18.648438 19.863281 19.398438 C 20.273438 20.148438 20.824219 20.796875 21.382812 21.441406 C 21.5625 21.644531 21.730469 21.875 21.835938 22.121094 C 21.972656 22.453125 21.863281 22.609375 21.617188 22.703125 C 21.550781 22.730469 21.484375 22.761719 21.425781 22.804688 C 21.304688 22.890625 21.226562 23.019531 21.261719 23.164062 C 21.292969 23.320312 21.433594 23.363281 21.578125 23.359375 C 21.988281 23.359375 22.398438 23.359375 22.808594 23.34375 C 23.027344 23.332031 23.164062 23.210938 23.214844 23 C 23.253906 22.820312 23.273438 22.632812 23.304688 22.449219 C 23.382812 21.945312 23.378906 21.445312 23.195312 20.964844 C 22.980469 20.40625 22.75 19.851562 22.515625 19.300781 C 22.300781 18.792969 22.136719 18.273438 22.125 17.714844 C 22.101562 16.722656 22.226562 15.75 22.398438 14.777344 C 22.445312 14.503906 22.507812 14.238281 22.570312 13.949219 C 23.015625 14.238281 23.46875 14.394531 23.984375 14.347656 C 24.488281 14.300781 24.90625 14.089844 25.167969 13.652344 C 25.382812 13.296875 25.425781 12.988281 25.121094 12.691406 C 25.226562 12.640625 25.355469 12.601562 25.289062 12.4375 C 25.265625 12.386719 25.246094 12.332031 25.214844 12.285156 C 25.015625 12.015625 24.816406 11.746094 24.605469 11.460938 C 24.664062 11.328125 24.824219 11.328125 24.957031 11.28125 C 25.105469 11.230469 25.136719 11.171875 25.074219 11.027344 C 25.054688 10.984375 25.035156 10.941406 25.011719 10.902344 C 24.78125 10.5 24.550781 10.09375 24.316406 9.691406 C 24.148438 9.398438 23.9375 9.144531 23.640625 8.972656 C 22.964844 8.582031 22.273438 8.632812 21.582031 8.921875 C 21.085938 9.128906 20.660156 9.4375 20.230469 9.75 C 19.894531 9.992188 19.554688 10.246094 19.144531 10.332031 C 18.351562 10.492188 17.703125 10.917969 17.058594 11.363281 C 16.535156 11.71875 16.019531 12.09375 15.46875 12.398438 C 14.410156 12.984375 13.28125 13.429688 12.164062 13.894531 C 11.402344 14.210938 10.65625 14.566406 10.058594 15.199219 M 14.226562 19.503906 C 14.152344 19.484375 14.128906 19.507812 14.128906 19.585938 C 14.128906 19.777344 14.152344 19.976562 14.113281 20.164062 C 14.015625 20.679688 13.894531 21.191406 13.78125 21.707031 C 13.699219 22.074219 13.582031 22.4375 13.539062 22.808594 C 13.492188 23.207031 13.652344 23.359375 14.058594 23.363281 C 14.789062 23.371094 15.519531 23.363281 16.246094 23.363281 C 16.433594 23.363281 16.507812 23.246094 16.453125 23.066406 C 16.40625 22.910156 16.277344 22.847656 16.148438 22.796875 C 15.957031 22.71875 15.757812 22.664062 15.566406 22.589844 C 15.300781 22.484375 15.242188 22.339844 15.367188 22.085938 C 15.574219 21.664062 15.804688 21.257812 16.007812 20.832031 C 16.179688 20.476562 16.324219 20.109375 16.484375 19.738281 C 16.09375 19.722656 15.722656 19.722656 15.359375 19.683594 C 14.988281 19.644531 14.621094 19.566406 14.226562 19.503906 Z M 14.226562 19.503906 "/>
<path style=" stroke:none;fill-rule:nonzero;fill:rgb(99.607843%,99.607843%,99.607843%);fill-opacity:1;" d="M 10.0625 15.1875 C 10.65625 14.566406 11.402344 14.210938 12.164062 13.894531 C 13.28125 13.429688 14.410156 12.984375 15.46875 12.398438 C 16.019531 12.09375 16.535156 11.71875 17.058594 11.363281 C 17.703125 10.917969 18.351562 10.492188 19.144531 10.332031 C 19.554688 10.246094 19.894531 9.992188 20.230469 9.75 C 20.660156 9.4375 21.085938 9.128906 21.582031 8.921875 C 22.273438 8.632812 22.964844 8.582031 23.640625 8.972656 C 23.9375 9.144531 24.148438 9.398438 24.316406 9.691406 C 24.550781 10.09375 24.78125 10.5 25.011719 10.902344 C 25.035156 10.941406 25.054688 10.984375 25.074219 11.027344 C 25.136719 11.171875 25.105469 11.230469 24.957031 11.28125 C 24.824219 11.328125 24.664062 11.328125 24.605469 11.460938 C 24.816406 11.746094 25.015625 12.015625 25.214844 12.285156 C 25.246094 12.332031 25.265625 12.386719 25.289062 12.4375 C 25.355469 12.601562 25.226562 12.640625 25.121094 12.691406 C 25.425781 12.988281 25.382812 13.296875 25.167969 13.652344 C 24.90625 14.089844 24.488281 14.300781 23.984375 14.347656 C 23.46875 14.394531 23.015625 14.238281 22.570312 13.949219 C 22.507812 14.238281 22.445312 14.503906 22.398438 14.777344 C 22.226562 15.75 22.101562 16.722656 22.125 17.714844 C 22.136719 18.273438 22.300781 18.792969 22.515625 19.300781 C 22.75 19.851562 22.980469 20.40625 23.195312 20.964844 C 23.378906 21.445312 23.382812 21.945312 23.304688 22.449219 C 23.273438 22.632812 23.253906 22.820312 23.214844 23 C 23.164062 23.210938 23.027344 23.332031 22.808594 23.34375 C 22.398438 23.359375 21.988281 23.359375 21.578125 23.359375 C 21.433594 23.363281 21.292969 23.320312 21.261719 23.164062 C 21.226562 23.019531 21.304688 22.890625 21.425781 22.804688 C 21.484375 22.761719 21.550781 22.730469 21.617188 22.703125 C 21.863281 22.609375 21.972656 22.453125 21.835938 22.121094 C 21.730469 21.875 21.5625 21.644531 21.382812 21.441406 C 20.824219 20.796875 20.273438 20.148438 19.863281 19.398438 C 19.457031 18.648438 19.214844 17.855469 19.15625 17.007812 C 19.121094 16.453125 19.097656 15.898438 19.066406 15.34375 C 19.066406 15.3125 19.0625 15.285156 19.058594 15.25 C 18.960938 15.578125 18.878906 15.902344 18.761719 16.210938 C 18.4375 17.070312 17.769531 17.46875 16.894531 17.5625 C 16.175781 17.636719 15.457031 17.617188 14.75 17.46875 C 14.4375 17.402344 14.136719 17.265625 13.832031 17.152344 C 13.746094 17.121094 13.667969 17.066406 13.59375 17.027344 C 13.367188 17.375 13.160156 17.726562 12.921875 18.058594 C 11.988281 19.375 10.839844 20.460938 9.464844 21.316406 C 9.148438 21.511719 8.855469 21.746094 8.578125 21.992188 C 8.335938 22.203125 8.378906 22.480469 8.652344 22.652344 C 8.8125 22.753906 8.996094 22.816406 9.164062 22.910156 C 9.285156 22.984375 9.410156 23.066406 9.503906 23.167969 C 9.59375 23.269531 9.542969 23.359375 9.40625 23.363281 C 8.664062 23.367188 7.917969 23.363281 7.171875 23.363281 C 7.140625 23.363281 7.089844 23.339844 7.074219 23.3125 C 6.878906 22.964844 6.734375 22.605469 6.722656 22.203125 C 6.710938 21.785156 6.847656 21.410156 7.113281 21.101562 C 7.402344 20.757812 7.710938 20.421875 8.039062 20.113281 C 8.710938 19.484375 9.011719 18.699219 9.097656 17.800781 C 9.183594 16.925781 9.378906 16.074219 9.925781 15.351562 C 9.96875 15.300781 10.015625 15.25 10.0625 15.1875 Z M 10.0625 15.1875 "/>
<path style=" stroke:none;fill-rule:nonzero;fill:rgb(98.823529%,98.823529%,98.823529%);fill-opacity:1;" d="M 14.238281 19.503906 C 14.621094 19.566406 14.988281 19.644531 15.359375 19.683594 C 15.722656 19.722656 16.09375 19.722656 16.484375 19.738281 C 16.324219 20.109375 16.179688 20.476562 16.007812 20.832031 C 15.804688 21.257812 15.574219 21.664062 15.367188 22.085938 C 15.242188 22.339844 15.300781 22.484375 15.566406 22.589844 C 15.757812 22.664062 15.957031 22.71875 16.148438 22.796875 C 16.277344 22.847656 16.40625 22.910156 16.453125 23.066406 C 16.507812 23.246094 16.433594 23.363281 16.246094 23.363281 C 15.519531 23.363281 14.789062 23.371094 14.058594 23.363281 C 13.652344 23.359375 13.492188 23.207031 13.539062 22.808594 C 13.582031 22.4375 13.699219 22.074219 13.78125 21.707031 C 13.894531 21.191406 14.015625 20.679688 14.113281 20.164062 C 14.152344 19.976562 14.128906 19.777344 14.128906 19.585938 C 14.128906 19.507812 14.152344 19.484375 14.238281 19.503906 Z M 14.238281 19.503906 "/>
</g>
</svg>
