<svg version="1.1" id="Layer_1" xmlns="http://www.w3.org/2000/svg" xmlns:xlink="http://www.w3.org/1999/xlink" x="0px" y="0px"
	 width="100%" viewBox="0 0 1024 1024" enable-background="new 0 0 1024 1024" xml:space="preserve">
<path fill="#000000" opacity="1.000000" stroke="none" 
	d="
M493.000000,1025.000000 
	C328.666656,1025.000000 164.833328,1025.000000 1.000000,1025.000000 
	C1.000000,683.666687 1.000000,342.333344 1.000000,1.000000 
	C342.333344,1.000000 683.666687,1.000000 1025.000000,1.000000 
	C1025.000000,342.333344 1025.000000,683.666687 1025.000000,1025.000000 
	C847.833313,1025.000000 670.666687,1025.000000 493.000000,1025.000000 
M264.867340,498.375122 
	C250.224564,522.758423 244.093811,549.733276 241.010101,577.574280 
	C239.237488,593.578064 236.792694,609.400208 231.594147,624.709473 
	C224.893372,644.442749 212.115311,659.962585 197.724686,674.487305 
	C186.247253,686.071777 174.635712,697.583679 163.970413,709.895996 
	C152.577499,723.048157 146.344482,738.551392 146.986084,756.391907 
	C147.544128,771.909546 153.070755,785.799988 160.658768,799.005249 
	C161.324951,800.164551 163.557419,801.006897 165.066162,801.012695 
	C194.064850,801.124207 223.064331,801.130859 252.062759,800.984619 
	C253.935333,800.975098 256.522736,800.027832 257.438507,798.635742 
	C258.156342,797.544678 257.210785,794.836182 256.263214,793.304688 
	C255.075958,791.385742 253.381485,789.517395 251.462265,788.368164 
	C247.210800,785.822327 242.653717,783.792664 238.273529,781.454590 
	C232.296707,778.264282 225.919449,775.590149 220.523148,771.600220 
	C212.132462,765.396301 211.583679,756.615417 218.440125,748.692078 
	C221.251038,745.443787 224.340103,742.275391 227.818604,739.794006 
	C241.202972,730.246338 254.557159,720.621948 268.354309,711.693298 
	C318.927734,678.965698 360.017120,636.646118 394.404602,587.565674 
	C402.389648,576.168823 409.379822,564.074890 416.970123,552.076721 
	C417.810638,552.519958 418.974915,553.091370 420.099091,553.733215 
	C431.083954,560.005005 442.453979,565.455017 454.890533,568.082581 
	C488.183197,575.116394 521.715454,577.419556 555.474976,571.895020 
	C575.409851,568.632751 592.954468,560.356079 606.259094,544.790100 
	C615.555176,533.913940 621.023376,520.849182 625.011169,507.224030 
	C627.540771,498.581268 629.625854,489.808411 631.910339,481.093903 
	C632.861145,482.969116 632.868408,484.702667 632.860046,486.436157 
	C632.725220,514.412537 633.776306,542.321594 638.016785,570.021545 
	C641.960083,595.780151 650.191956,620.108704 662.471497,643.112976 
	C677.849060,671.920837 698.348633,696.901062 719.687561,721.367676 
	C727.490967,730.314880 734.636353,740.074890 740.574585,750.336304 
	C745.568970,758.966553 745.547485,771.384216 732.281860,775.544678 
	C730.089600,776.232300 728.035156,777.467346 726.040710,778.656799 
	C720.799561,781.782959 717.326538,788.862305 718.780579,793.908936 
	C720.223694,798.917236 724.224121,800.955505 729.042175,800.981628 
	C745.523682,801.071045 762.014526,801.229370 778.485840,800.779480 
	C788.452332,800.507263 794.296936,794.781189 795.945435,784.888977 
	C797.388550,776.228455 798.668640,767.537109 799.827393,758.833618 
	C802.347107,739.906433 800.621277,721.296570 793.750122,703.510559 
	C786.355469,684.369446 778.246887,665.498230 770.180847,646.624207 
	C762.079468,627.667297 754.972839,608.485474 752.989868,587.739197 
	C750.740845,564.208618 753.160828,540.807434 755.568359,517.515625 
	C757.762878,496.285004 761.702637,475.226624 765.157166,454.138855 
	C766.389771,446.614746 768.455383,439.227112 770.203796,431.498688 
	C771.628296,432.218384 772.399109,432.527557 773.086731,432.967010 
	C790.802429,444.289124 809.902832,449.604492 830.956116,446.111755 
	C852.731628,442.499268 868.766541,431.113068 876.789551,410.236328 
	C880.633484,400.233917 880.156738,390.228943 870.940002,382.520447 
	C870.653259,382.280609 870.630798,381.724884 870.480652,381.303864 
	C877.772827,379.456146 879.415466,375.816803 876.042786,369.190979 
	C870.027527,357.373932 862.043396,347.025787 852.603943,337.757385 
	C849.079041,334.296387 849.303711,332.036194 853.787964,329.857422 
	C856.888184,328.351166 860.262451,327.349945 863.589844,326.382935 
	C870.167786,324.471344 871.238403,322.532654 868.620850,316.416931 
	C867.709656,314.287964 866.709045,312.181305 865.560303,310.172485 
	C857.238770,295.620941 848.502380,281.293304 840.589355,266.524078 
	C823.438416,234.512711 794.363220,220.812637 759.229675,225.510941 
	C734.908386,228.763351 714.093323,240.570358 694.355408,254.348801 
	C672.625427,269.517822 651.976074,286.175812 624.838440,291.770966 
	C600.132935,296.864655 579.554810,311.156433 559.219971,325.266968 
	C532.507874,343.802734 506.752472,363.784271 476.888519,377.353149 
	C451.082672,389.078186 425.464630,401.218292 399.614258,412.842957 
	C376.021790,423.452332 351.896179,432.926575 328.613953,444.161865 
	C303.062744,456.492096 279.969360,472.340240 264.867340,498.375122 
M415.031769,789.125244 
	C417.785492,797.626404 424.059418,801.042847 432.542786,801.066589 
	C451.863831,801.120667 471.185120,801.102722 490.506287,801.103821 
	C501.669678,801.104431 512.834229,800.991211 523.995728,801.132812 
	C527.263489,801.174255 528.758301,799.956360 529.516296,796.817139 
	C530.923523,790.989563 529.563721,786.192322 524.569824,782.842163 
	C521.705200,780.920593 518.545349,779.327393 515.331543,778.060120 
	C507.333679,774.906250 499.032806,772.453796 491.228455,768.897156 
	C484.907837,766.016663 483.513367,762.902588 485.044708,756.401184 
	C486.050385,752.131775 487.988373,747.916382 490.275177,744.140991 
	C505.781097,718.541321 517.325745,691.066223 528.812439,663.557861 
	C529.463562,661.998535 529.731445,660.279175 530.308777,658.150757 
	C498.894562,659.131348 468.664856,655.818787 438.971161,648.809631 
	C438.248047,660.561829 438.860809,671.940613 436.616577,682.724731 
	C431.637512,706.650757 425.208405,730.274353 419.405243,754.029724 
	C416.654785,765.288879 413.256836,776.472900 415.031769,789.125244 
z"/>
<path fill="#FEFEFE" opacity="1.000000" stroke="none" 
	d="
M265.035065,498.050964 
	C279.969360,472.340240 303.062744,456.492096 328.613953,444.161865 
	C351.896179,432.926575 376.021790,423.452332 399.614258,412.842957 
	C425.464630,401.218292 451.082672,389.078186 476.888519,377.353149 
	C506.752472,363.784271 532.507874,343.802734 559.219971,325.266968 
	C579.554810,311.156433 600.132935,296.864655 624.838440,291.770966 
	C651.976074,286.175812 672.625427,269.517822 694.355408,254.348801 
	C714.093323,240.570358 734.908386,228.763351 759.229675,225.510941 
	C794.363220,220.812637 823.438416,234.512711 840.589355,266.524078 
	C848.502380,281.293304 857.238770,295.620941 865.560303,310.172485 
	C866.709045,312.181305 867.709656,314.287964 868.620850,316.416931 
	C871.238403,322.532654 870.167786,324.471344 863.589844,326.382935 
	C860.262451,327.349945 856.888184,328.351166 853.787964,329.857422 
	C849.303711,332.036194 849.079041,334.296387 852.603943,337.757385 
	C862.043396,347.025787 870.027527,357.373932 876.042786,369.190979 
	C879.415466,375.816803 877.772827,379.456146 870.480652,381.303864 
	C870.630798,381.724884 870.653259,382.280609 870.940002,382.520447 
	C880.156738,390.228943 880.633484,400.233917 876.789551,410.236328 
	C868.766541,431.113068 852.731628,442.499268 830.956116,446.111755 
	C809.902832,449.604492 790.802429,444.289124 773.086731,432.967010 
	C772.399109,432.527557 771.628296,432.218384 770.203796,431.498688 
	C768.455383,439.227112 766.389771,446.614746 765.157166,454.138855 
	C761.702637,475.226624 757.762878,496.285004 755.568359,517.515625 
	C753.160828,540.807434 750.740845,564.208618 752.989868,587.739197 
	C754.972839,608.485474 762.079468,627.667297 770.180847,646.624207 
	C778.246887,665.498230 786.355469,684.369446 793.750122,703.510559 
	C800.621277,721.296570 802.347107,739.906433 799.827393,758.833618 
	C798.668640,767.537109 797.388550,776.228455 795.945435,784.888977 
	C794.296936,794.781189 788.452332,800.507263 778.485840,800.779480 
	C762.014526,801.229370 745.523682,801.071045 729.042175,800.981628 
	C724.224121,800.955505 720.223694,798.917236 718.780579,793.908936 
	C717.326538,788.862305 720.799561,781.782959 726.040710,778.656799 
	C728.035156,777.467346 730.089600,776.232300 732.281860,775.544678 
	C745.547485,771.384216 745.568970,758.966553 740.574585,750.336304 
	C734.636353,740.074890 727.490967,730.314880 719.687561,721.367676 
	C698.348633,696.901062 677.849060,671.920837 662.471497,643.112976 
	C650.191956,620.108704 641.960083,595.780151 638.016785,570.021545 
	C633.776306,542.321594 632.725220,514.412537 632.860046,486.436157 
	C632.868408,484.702667 632.861145,482.969116 631.910339,481.093903 
	C629.625854,489.808411 627.540771,498.581268 625.011169,507.224030 
	C621.023376,520.849182 615.555176,533.913940 606.259094,544.790100 
	C592.954468,560.356079 575.409851,568.632751 555.474976,571.895020 
	C521.715454,577.419556 488.183197,575.116394 454.890533,568.082581 
	C442.453979,565.455017 431.083954,560.005005 420.099091,553.733215 
	C418.974915,553.091370 417.810638,552.519958 416.970123,552.076721 
	C409.379822,564.074890 402.389648,576.168823 394.404602,587.565674 
	C360.017120,636.646118 318.927734,678.965698 268.354309,711.693298 
	C254.557159,720.621948 241.202972,730.246338 227.818604,739.794006 
	C224.340103,742.275391 221.251038,745.443787 218.440125,748.692078 
	C211.583679,756.615417 212.132462,765.396301 220.523148,771.600220 
	C225.919449,775.590149 232.296707,778.264282 238.273529,781.454590 
	C242.653717,783.792664 247.210800,785.822327 251.462265,788.368164 
	C253.381485,789.517395 255.075958,791.385742 256.263214,793.304688 
	C257.210785,794.836182 258.156342,797.544678 257.438507,798.635742 
	C256.522736,800.027832 253.935333,800.975098 252.062759,800.984619 
	C223.064331,801.130859 194.064850,801.124207 165.066162,801.012695 
	C163.557419,801.006897 161.324951,800.164551 160.658768,799.005249 
	C153.070755,785.799988 147.544128,771.909546 146.986084,756.391907 
	C146.344482,738.551392 152.577499,723.048157 163.970413,709.895996 
	C174.635712,697.583679 186.247253,686.071777 197.724686,674.487305 
	C212.115311,659.962585 224.893372,644.442749 231.594147,624.709473 
	C236.792694,609.400208 239.237488,593.578064 241.010101,577.574280 
	C244.093811,549.733276 250.224564,522.758423 265.035065,498.050964 
z"/>
<path fill="#FDFDFD" opacity="1.000000" stroke="none" 
	d="
M414.985718,788.719360 
	C413.256836,776.472900 416.654785,765.288879 419.405243,754.029724 
	C425.208405,730.274353 431.637512,706.650757 436.616577,682.724731 
	C438.860809,671.940613 438.248047,660.561829 438.971161,648.809631 
	C468.664856,655.818787 498.894562,659.131348 530.308777,658.150757 
	C529.731445,660.279175 529.463562,661.998535 528.812439,663.557861 
	C517.325745,691.066223 505.781097,718.541321 490.275177,744.140991 
	C487.988373,747.916382 486.050385,752.131775 485.044708,756.401184 
	C483.513367,762.902588 484.907837,766.016663 491.228455,768.897156 
	C499.032806,772.453796 507.333679,774.906250 515.331543,778.060120 
	C518.545349,779.327393 521.705200,780.920593 524.569824,782.842163 
	C529.563721,786.192322 530.923523,790.989563 529.516296,796.817139 
	C528.758301,799.956360 527.263489,801.174255 523.995728,801.132812 
	C512.834229,800.991211 501.669678,801.104431 490.506287,801.103821 
	C471.185120,801.102722 451.863831,801.120667 432.542786,801.066589 
	C424.059418,801.042847 417.785492,797.626404 414.985718,788.719360 
z"/>
</svg>